# AST/ASF file generated using VICON BodyLanguage
# -----------------------------------------------
:version 1.10
:name VICON
:units
  mass 1.0
  length 0.45
  angle deg
:documentation
   .ast/.asf automatically generated from VICON data using
   VICON BodyBuilder and BodyLanguage model FoxedUp or BRILLIANT.MOD
:root
   order TX TY TZ RX RY RZ
   axis XYZ
   position 0 0 0  
   orientation 0 0 0 
:bonedata
  begin
     id 1 
     name lhipjoint
     direction 0.577973 -0.728611 0.367523 
     length 2.48544 
     axis 0 0 0  XYZ
  end
  begin
     id 2 
     name lfemur
     direction 0.34202 -0.939693 0  
     length 7.1921  
     axis 0 0 20  XYZ
    dof rx ry rz
    limits (-160.0 20.0)
           (-70.0 70.0)
           (-60.0 70.0)
  end
  begin
     id 3 
     name ltibia
     direction 0.34202 -0.939693 0   
     length 7.71059   
     axis 0 0 20   XYZ
    dof rx
    limits (-10.0 170.0)
  end
  begin
     id 4 
     name lfoot
     direction 0.089538 -0.246004 0.965124   
     length 2.19909   
     axis -90 7.62852e-016 20   XYZ
    dof rx rz
    limits (-45.0 90.0)
           (-70.0 20.0)
  end
  begin
     id 5 
     name ltoes
     direction 1.53544e-011 -4.21829e-011 1   
     length 1.10116   
     axis -90 7.62852e-016 20   XYZ
    dof rx
    limits (-90.0 20.0)
  end
  begin
     id 6 
     name rhipjoint
     direction -0.554414 -0.743062 0.374812   
     length 2.4371  
     axis 0 0 0  XYZ 
  end
  begin
     id 7 
     name rfemur
     direction -0.34202 -0.939693 0   
     length 7.47254   
     axis 0 0 -20   XYZ
    dof rx ry rz
    limits (-160.0 20.0)
           (-70.0 70.0)
           (-70.0 60.0)
  end
  begin
     id 8 
     name rtibia
     direction -0.34202 -0.939693 0   
     length 7.65855   
     axis 0 0 -20   XYZ
    dof rx
    limits (-10.0 170.0)
 end
 begin
     id 9 
     name rfoot
     direction -0.133779 -0.367555 0.92033   
     length 2.43006  
     axis -90 -7.62852e-016 -20   XYZ
    dof rx rz
    limits (-45.0 90.0)
           (-20.0 70.0)
  end
  begin
     id 10 
     name rtoes
     direction -1.53563e-011 -4.21889e-011 1   
     length 1.19625   
     axis -90 -7.62852e-016 -20   XYZ
    dof rx
    limits (-90.0 20.0)
  end
  begin
     id 11 
     name lowerback
     direction 0.0249066 0.998043 -0.0573585   
     length 2.08485   
     axis 0 0 0   XYZ
    dof rx ry rz
    limits (-20.0 45.0)
           (-30.0 30.0)
           (-30.0 30.0)
  end
  begin
     id 12 
     name upperback
     direction 0.0237884 0.999673 0.00943178   
     length 2.08515   
     axis 0 0 0   XYZ
    dof rx ry rz
    limits (-20.0 45.0)
           (-30.0 30.0)
           (-30.0 30.0)
  end
  begin
     id 13 
     name thorax
     direction 0.0106671 0.999301 0.0358174   
     length 2.09037   
     axis 0 0 0   XYZ
    dof rx ry rz
    limits (-20.0 45.0)
           (-30.0 30.0)
           (-30.0 30.0)
  end
  begin
     id 14 
     name lowerneck
     direction -0.0580016 0.987052 0.149546   
     length 1.84454   
     axis 0 0 0   XYZ
    dof rx ry rz
    limits (-20.0 45.0)
           (-30.0 30.0)
           (-30.0 30.0)
  end
  begin
     id 15 
     name upperneck
     direction 0.079456 0.981963 -0.171567   
     length 1.88141   
     axis 0 0 0   XYZ
    dof rx ry rz
    limits (-20.0 45.0)
           (-30.0 30.0)
           (-30.0 30.0)
  end
  begin
     id 16
     name head
     direction 0.0262167 0.9967 -0.0768276  
     length 1.89541  
     axis 0 0 0   XYZ
    dof rx ry rz
    limits (-20.0 45.0)
           (-30.0 30.0)
           (-30.0 30.0)
  end
  begin
     id 17 
     name lclavicle
     direction 0.946135 0.322134 -0.0325326  
     length 3.949  
     axis 0 0 0   XYZ
    dof ry rz
    limits (-20.0 10.0)
           (0.0 20.0)
  end
  begin
     id 18 
     name lhumerus
     direction 1 -4.48964e-011 1.94005e-028   
     length 5.10995   
     axis 180 -30 -90   XYZ
    dof rx ry rz
    limits (-60.0 90.0)
           (-90.0 90.0)
           (-90.0 90.0)
  end
  begin
     id 19
     name lradius
     direction 1 -4.48976e-011 2.87852e-027   
     length 3.21207   
     axis 180 -30 -90   XYZ
    dof rx
    limits (-10.0 170.0)
  end
  begin
     id 20
     name lwrist
     direction 1 -4.48963e-011 1.9975e-027   
     length 1.60604   
     axis 2.96054e-016 90 90   XYZ
    dof ry
    limits (-180.0 0.0)
 end
  begin
     id 21 
     name lhand
     direction 1 -4.48919e-011 4.00227e-027   
     length 0.63349   
     axis -2.5488e-015 90 90   XYZ
    dof rx rz
    limits (-90.0 90.0)
           (-45.0 45.0)
  end
  begin
     id 22 
     name lfingers
     direction 1 -4.49037e-011 7.9652e-027   
     length 0.510736   
     axis -5.0975e-015 90 90   XYZ
    dof rx
    limits (0.0 90.0)
  end
  begin
     id 23
     name lthumb
     direction 0.707107 -6.34922e-011 0.707107   
     length 0.733318   
     axis -90 45 -4.48553e-014   XYZ
    dof rx rz
    limits (-45.0 45.0)
           (-45.0 45.0)
  end
  begin
     id 24 
     name rclavicle
     direction -0.940085 0.328911 -0.0897654   
     length 3.93848  
     axis 0 0 0   XYZ 
    dof ry rz
    limits (-10.0 20.0)
           (-20.0 0.0)
  end
  begin
     id 25 
     name rhumerus
     direction -1 -4.48958e-011 3.02044e-027  
     length 5.25109   
     axis 180 30 90   XYZ
    dof rx ry rz
    limits (-90.0 60.0)
           (-90.0 90.0)
           (-90.0 90.0)
  end
  begin
     id 26 
     name rradius
     direction -1 -4.4897e-011 9.78352e-028   
     length 3.28364   
     axis 180 30 90   XYZ
    dof rx
    limits (-10.0 170.0)
  end
  begin
     id 27 
     name rwrist
     direction -1 -4.48943e-011 1.99918e-027   
     length 1.64182   
     axis 2.96054e-016 -90 -90   XYZ
    dof ry
    limits (-180.0 0.0)
  end
  begin
     id 28
     name rhand
     direction -1 -4.49024e-011 3.98478e-027   
     length 0.599745   
     axis -2.5488e-015 -90 -90   XYZ
    dof rx rz
    limits (-90.0 90.0)
           (-45.0 45.0)
  end
  begin
     id 29
     name rfingers
     direction -1 -4.48914e-011 8.00621e-027   
     length 0.48353   
     axis -5.0975e-015 -90 -90   XYZ
    dof rx
    limits (0.0 90.0)
  end
  begin
     id 30
     name rthumb
     direction -0.707107 -6.34992e-011 0.707107   
     length 0.694255   
     axis -90 -45 4.48553e-014   XYZ
    dof rx rz
    limits (-45.0 45.0)
           (-45.0 45.0)
  end
:hierarchy
  begin
    root lhipjoint rhipjoint lowerback
    lhipjoint lfemur
    lfemur ltibia
    ltibia lfoot
    lfoot ltoes
    rhipjoint rfemur
    rfemur rtibia
    rtibia rfoot
    rfoot rtoes
    lowerback upperback
    upperback thorax
    thorax lowerneck lclavicle rclavicle
    lowerneck upperneck
    upperneck head
    lclavicle lhumerus
    lhumerus lradius
    lradius lwrist
    lwrist lhand lthumb
    lhand lfingers
    rclavicle rhumerus
    rhumerus rradius
    rradius rwrist
    rwrist rhand rthumb
    rhand rfingers
  end

#!OML:ASF E:\CV Data\Top Level 1\Subject 1\Session 1\player.ASF
:FULLY-SPECIFIED
:DEGREES
1387
root 7.11655 17.6871 -4.67326 3.88341 -47.322 9.07801
lowerback 10.5493 0.314723 9.1343
upperback 1.81043 1.60437 9.33654
thorax -4.04412 0.616255 4.52914
lowerneck -16.4004 3.05783 -4.2495
upperneck 10.8301 6.20779 -7.87025
head 6.13489 2.15751 -1.21035
rclavicle -5.40694e-014 9.54166e-015
rhumerus 14.1373 -47.7703 -71.8237
rradius 102.322
rwrist -31.5695
rhand -49.5559 36.5875
rfingers 7.12502
rthumb -22.1628 7.83788
lclavicle -5.40694e-014 9.54166e-015
lhumerus -27.6673 1.60982 74.1591
lradius 60.4557
lwrist 30.5507
lhand -20.1162 22.1205
lfingers 7.12502
lthumb 6.22759 52.009
rfemur -20.7821 -9.50843 10.6672
rtibia 36.1378
rfoot -21.1471 -19.2967
rtoes -1.01533
lfemur -23.4588 4.68333 -23.4463
ltibia 12.0911
lfoot 5.58896 1.22295
ltoes -2.02451
1388
root 7.11916 17.6727 -4.61319 4.02088 -46.4352 8.76145
lowerback 10.403 0.282057 9.20319
upperback 1.69705 1.56815 9.4431
thorax -4.08446 0.597208 4.6133
lowerneck -16.3126 2.84311 -4.41037
upperneck 10.8376 5.92275 -7.70684
head 6.10645 2.02818 -1.16301
rclavicle -4.6118e-014 -5.40694e-014
rhumerus 14.6705 -48.0845 -72.645
rradius 102.461
rwrist -31.8961
rhand -49.6095 36.5533
rfingers 7.12502
rthumb -22.2143 7.80986
lclavicle -4.6118e-014 -5.40694e-014
lhumerus -28.3347 1.81719 74.5745
lradius 60.4755
lwrist 30.6491
lhand -20.2855 22.2287
lfingers 7.12502
lthumb 6.06423 52.1219
rfemur -20.3264 -9.7165 10.6596
rtibia 36.2825
rfoot -21.3881 -19.8581
rtoes -1.2403
lfemur -23.4488 4.60266 -23.6183
ltibia 12.3814
lfoot 5.1215 0.453416
ltoes -1.82099
1389
root 7.12183 17.6597 -4.5532 4.15188 -45.496 8.43921
lowerback 10.2518 0.246522 9.26324
upperback 1.5716 1.52851 9.559
thorax -4.13534 0.576439 4.71333
lowerneck -16.1913 2.61688 -4.59992
upperneck 10.8351 5.62417 -7.53971
head 6.06917 1.89249 -1.11138
rclavicle -1.1291e-013 -7.31528e-014
rhumerus 15.1971 -48.3107 -73.5068
rradius 102.583
rwrist -32.2236
rhand -49.6869 36.5494
rfingers 7.12502
rthumb -22.2885 7.81476
lclavicle -1.1291e-013 -7.31528e-014
lhumerus -28.945 2.03631 75.0358
lradius 60.4616
lwrist 30.6938
lhand -20.4522 22.3019
lfingers 7.12502
lthumb 5.90323 52.1997
rfemur -19.8332 -9.94102 10.663
rtibia 36.4006
rfoot -21.6107 -20.4331
rtoes -1.47451
lfemur -23.4486 4.45344 -23.7676
ltibia 12.6993
lfoot 4.66027 -0.31782
ltoes -1.55352
1390
root 7.1249 17.6486 -4.49369 4.27901 -44.4967 8.11663
lowerback 10.0933 0.218897 9.32856
upperback 1.43563 1.50047 9.667
thorax -4.1932 0.561315 4.80047
lowerneck -16.0456 2.36074 -4.78328
upperneck 10.8208 5.2822 -7.3855
head 6.02512 1.73587 -1.06898
rclavicle 3.65764e-014 -7.95139e-014
rhumerus 15.7141 -48.496 -74.4174
rradius 102.691
rwrist -32.5201
rhand -49.8057 36.5697
rfingers 7.12502
rthumb -22.4026 7.84874
lclavicle 3.65764e-014 -7.95139e-014
lhumerus -29.46 2.21262 75.5383
lradius 60.4074
lwrist 30.7037
lhand -20.6535 22.3075
lfingers 7.12502
lthumb 5.70891 52.2106
rfemur -19.3103 -10.1944 10.6755
rtibia 36.491
rfoot -21.8085 -21.0121
rtoes -1.71755
lfemur -23.4703 4.21986 -23.8942
ltibia 13.0558
lfoot 4.21672 -1.06508
ltoes -1.25905
1391
root 7.12863 17.64 -4.435 4.40275 -43.4323 7.79793
lowerback 9.92783 0.192614 9.40267
upperback 1.2929 1.47512 9.76673
thorax -4.25391 0.547465 4.87355
lowerneck -15.9311 2.08149 -4.9712
upperneck 10.8254 4.91104 -7.21091
head 5.99236 1.5647 -1.0214
rclavicle 6.20208e-014 3.81667e-014
rhumerus 16.2449 -48.6179 -75.3983
rradius 102.783
rwrist -32.7505
rhand -49.9802 36.5832
rfingers 7.12502
rthumb -22.5701 7.88253
lclavicle 6.20208e-014 3.81667e-014
lhumerus -29.8861 2.36048 76.077
lradius 60.3239
lwrist 30.6991
lhand -20.853 22.2906
lfingers 7.12502
lthumb 5.51629 52.1988
rfemur -18.7656 -10.4769 10.6948
rtibia 36.5601
rfoot -21.9782 -21.5949
rtoes -1.96969
lfemur -23.514 3.88502 -23.9954
ltibia 13.4445
lfoot 3.79826 -1.78158
ltoes -0.964879
1392
root 7.13293 17.6338 -4.3773 4.51634 -42.3105 7.48668
lowerback 9.77417 0.175691 9.4767
upperback 1.14339 1.46528 9.8624
thorax -4.32871 0.541064 4.94052
lowerneck -15.8896 1.77559 -5.14443
upperneck 10.8683 4.50856 -7.02684
head 5.98504 1.37605 -0.975132
rclavicle -3.49861e-014 -4.13472e-014
rhumerus 16.7798 -48.6768 -76.4248
rradius 102.862
rwrist -32.8956
rhand -50.2315 36.4801
rfingers 7.12502
rthumb -22.8112 7.80897
lclavicle -3.49861e-014 -4.13472e-014
lhumerus -30.2208 2.45536 76.6693
lradius 60.2087
lwrist 30.6999
lhand -21.0789 22.191
lfingers 7.12502
lthumb 5.29819 52.1048
rfemur -18.2002 -10.7764 10.7167
rtibia 36.6151
rfoot -22.0945 -22.1823
rtoes -2.30448
lfemur -23.5652 3.44421 -24.0663
ltibia 13.8522
lfoot 3.40906 -2.46614
ltoes -0.668145
1393
root 7.13776 17.6296 -4.32106 4.62982 -41.1278 7.18238
lowerback 9.60672 0.170961 9.56897
upperback 0.990573 1.4716 9.93949
thorax -4.39859 0.542513 4.97493
lowerneck -15.8722 1.43255 -5.32314
upperneck 10.9299 4.05703 -6.81742
head 5.98792 1.16401 -0.92432
rclavicle 4.77083e-015 2.22639e-014
rhumerus 17.3155 -48.6963 -77.5103
rradius 102.928
rwrist -33.0065
rhand -50.5117 36.3007
rfingers 7.12502
rthumb -23.0802 7.66299
lclavicle 4.77083e-015 2.22639e-014
lhumerus -30.4518 2.46398 77.298
lradius 60.066
lwrist 30.7312
lhand -21.3062 22.1162
lfingers 7.12502
lthumb 5.07868 52.0354
rfemur -17.6291 -11.0909 10.7442
rtibia 36.6655
rfoot -22.1705 -22.7704
rtoes -2.67126
lfemur -23.6279 2.91822 -24.1101
ltibia 14.2559
lfoot 3.05577 -3.15258
ltoes -0.329507
1394
root 7.14291 17.6269 -4.26624 4.74058 -39.8937 6.87878
lowerback 9.43199 0.169102 9.67188
upperback 0.83581 1.48187 10.0133
thorax -4.4662 0.545761 4.99947
lowerneck -15.883 1.06485 -5.54271
upperneck 11.0218 3.57943 -6.56188
head 6.00508 0.93937 -0.854637
rclavicle -2.3059e-014 -1.20861e-013
rhumerus 17.8544 -48.6306 -78.6494
rradius 102.987
rwrist -33.1532
rhand -50.7797 36.0507
rfingers 7.12502
rthumb -23.3373 7.44534
lclavicle -2.3059e-014 -1.20861e-013
lhumerus -30.6089 2.41835 77.9675
lradius 59.8984
lwrist 30.7917
lhand -21.5531 22.0491
lfingers 7.12502
lthumb 4.84029 51.9738
rfemur -17.0488 -11.4088 10.7823
rtibia 36.7154
rfoot -22.2123 -23.3589
rtoes -3.0631
lfemur -23.68 2.32995 -24.1243
ltibia 14.6355
lfoot 2.73898 -3.84787
ltoes 0.043629
1395
root 7.14794 17.625 -4.21252 4.84776 -38.6198 6.57954
lowerback 9.23697 0.166896 9.77353
upperback 0.677531 1.48873 10.0913
thorax -4.52626 0.547506 5.02991
lowerneck -15.8479 0.672341 -5.81629
upperneck 11.0884 3.06952 -6.2762
head 6.00743 0.701336 -0.770006
rclavicle 2.38542e-015 1.27222e-014
rhumerus 18.3819 -48.4539 -79.8241
rradius 103.034
rwrist -33.391
rhand -51.0017 35.7691
rfingers 7.12502
rthumb -23.5502 7.19093
lclavicle 2.38542e-015 1.27222e-014
lhumerus -30.7163 2.33739 78.6749
lradius 59.7139
lwrist 30.8884
lhand -21.7844 22.0616
lfingers 7.12502
lthumb 4.617 51.9912
rfemur -16.4623 -11.7235 10.8278
rtibia 36.7677
rfoot -22.2468 -23.937
rtoes -3.42485
lfemur -23.7134 1.71942 -24.1219
ltibia 14.9723
lfoot 2.4575 -4.56733
ltoes 0.482121
